<svg xmlns="http://www.w3.org/2000/svg" xmlns:svgjs="http://svgjs.dev/svgjs" xmlns:xlink="http://www.w3.org/1999/xlink" width="800" height="800" version="1.1" viewBox="0 0 800 800"><g fill="none" stroke="hsla(0, 0%, 14%, 1.00)" stroke-width="8.75"><circle cx="0" cy="0" r="10.921" fill="hsla(0, 0%, 14%, 1.00)" stroke="none"/><circle cx="100" cy="0" r="10.921" fill="hsla(0, 0%, 14%, 1.00)" stroke="none"/><circle cx="200" cy="0" r="10.921" fill="hsla(0, 0%, 14%, 1.00)" stroke="none"/><circle cx="300" cy="0" r="10.921" fill="hsla(0, 0%, 14%, 1.00)" stroke="none"/><circle cx="400" cy="0" r="10.921" fill="hsla(0, 0%, 14%, 1.00)" stroke="none"/><circle cx="500" cy="0" r="10.921" fill="hsla(0, 0%, 14%, 1.00)" stroke="none"/><circle cx="600" cy="0" r="10.921" fill="hsla(0, 0%, 14%, 1.00)" stroke="none"/><circle cx="700" cy="0" r="10.921" fill="hsla(0, 0%, 14%, 1.00)" stroke="none"/><circle cx="800" cy="0" r="10.921" fill="hsla(0, 0%, 14%, 1.00)" stroke="none"/><circle cx="0" cy="100" r="10.921" fill="hsla(0, 0%, 14%, 1.00)" stroke="none"/><circle cx="100" cy="100" r="10.921" fill="hsla(0, 0%, 14%, 1.00)" stroke="none"/><circle cx="200" cy="100" r="10.921" fill="hsla(0, 0%, 14%, 1.00)" stroke="none"/><circle cx="300" cy="100" r="10.921" fill="hsla(0, 0%, 14%, 1.00)" stroke="none"/><circle cx="400" cy="100" r="10.921" fill="hsla(0, 0%, 14%, 1.00)" stroke="none"/><circle cx="500" cy="100" r="10.921" fill="hsla(0, 0%, 14%, 1.00)" stroke="none"/><circle cx="600" cy="100" r="10.921" fill="hsla(0, 0%, 14%, 1.00)" stroke="none"/><circle cx="700" cy="100" r="10.921" fill="hsla(0, 0%, 14%, 1.00)" stroke="none"/><circle cx="800" cy="100" r="10.921" fill="hsla(0, 0%, 14%, 1.00)" stroke="none"/><circle cx="0" cy="200" r="10.921" fill="hsla(0, 0%, 14%, 1.00)" stroke="none"/><circle cx="100" cy="200" r="10.921" fill="hsla(0, 0%, 14%, 1.00)" stroke="none"/><circle cx="200" cy="200" r="10.921" fill="hsla(0, 0%, 14%, 1.00)" stroke="none"/><circle cx="300" cy="200" r="10.921" fill="hsla(0, 0%, 14%, 1.00)" stroke="none"/><circle cx="400" cy="200" r="10.921" fill="hsla(0, 0%, 14%, 1.00)" stroke="none"/><circle cx="500" cy="200" r="10.921" fill="hsla(0, 0%, 14%, 1.00)" stroke="none"/><circle cx="600" cy="200" r="10.921" fill="hsla(0, 0%, 14%, 1.00)" stroke="none"/><circle cx="700" cy="200" r="10.921" fill="hsla(0, 0%, 14%, 1.00)" stroke="none"/><circle cx="800" cy="200" r="10.921" fill="hsla(0, 0%, 14%, 1.00)" stroke="none"/><circle cx="0" cy="300" r="10.921" fill="hsla(0, 0%, 14%, 1.00)" stroke="none"/><circle cx="100" cy="300" r="10.921" fill="hsla(0, 0%, 14%, 1.00)" stroke="none"/><circle cx="200" cy="300" r="10.921" fill="hsla(0, 0%, 14%, 1.00)" stroke="none"/><circle cx="300" cy="300" r="10.921" fill="hsla(0, 0%, 14%, 1.00)" stroke="none"/><circle cx="400" cy="300" r="10.921" fill="hsla(0, 0%, 14%, 1.00)" stroke="none"/><circle cx="500" cy="300" r="10.921" fill="hsla(0, 0%, 14%, 1.00)" stroke="none"/><circle cx="600" cy="300" r="10.921" fill="hsla(0, 0%, 14%, 1.00)" stroke="none"/><circle cx="700" cy="300" r="10.921" fill="hsla(0, 0%, 14%, 1.00)" stroke="none"/><circle cx="800" cy="300" r="10.921" fill="hsla(0, 0%, 14%, 1.00)" stroke="none"/><circle cx="0" cy="400" r="10.921" fill="hsla(0, 0%, 14%, 1.00)" stroke="none"/><circle cx="100" cy="400" r="10.921" fill="hsla(0, 0%, 14%, 1.00)" stroke="none"/><circle cx="200" cy="400" r="10.921" fill="hsla(0, 0%, 14%, 1.00)" stroke="none"/><circle cx="300" cy="400" r="10.921" fill="hsla(0, 0%, 14%, 1.00)" stroke="none"/><circle cx="400" cy="400" r="10.921" fill="hsla(0, 0%, 14%, 1.00)" stroke="none"/><circle cx="500" cy="400" r="10.921" fill="hsla(0, 0%, 14%, 1.00)" stroke="none"/><circle cx="600" cy="400" r="10.921" fill="hsla(0, 0%, 14%, 1.00)" stroke="none"/><circle cx="700" cy="400" r="10.921" fill="hsla(0, 0%, 14%, 1.00)" stroke="none"/><circle cx="800" cy="400" r="10.921" fill="hsla(0, 0%, 14%, 1.00)" stroke="none"/><circle cx="0" cy="500" r="10.921" fill="hsla(0, 0%, 14%, 1.00)" stroke="none"/><circle cx="100" cy="500" r="10.921" fill="hsla(0, 0%, 14%, 1.00)" stroke="none"/><circle cx="200" cy="500" r="10.921" fill="hsla(0, 0%, 14%, 1.00)" stroke="none"/><circle cx="300" cy="500" r="10.921" fill="hsla(0, 0%, 14%, 1.00)" stroke="none"/><circle cx="400" cy="500" r="10.921" fill="hsla(0, 0%, 14%, 1.00)" stroke="none"/><circle cx="500" cy="500" r="10.921" fill="hsla(0, 0%, 14%, 1.00)" stroke="none"/><circle cx="600" cy="500" r="10.921" fill="hsla(0, 0%, 14%, 1.00)" stroke="none"/><circle cx="700" cy="500" r="10.921" fill="hsla(0, 0%, 14%, 1.00)" stroke="none"/><circle cx="800" cy="500" r="10.921" fill="hsla(0, 0%, 14%, 1.00)" stroke="none"/><circle cx="0" cy="600" r="10.921" fill="hsla(0, 0%, 14%, 1.00)" stroke="none"/><circle cx="100" cy="600" r="10.921" fill="hsla(0, 0%, 14%, 1.00)" stroke="none"/><circle cx="200" cy="600" r="10.921" fill="hsla(0, 0%, 14%, 1.00)" stroke="none"/><circle cx="300" cy="600" r="10.921" fill="hsla(0, 0%, 14%, 1.00)" stroke="none"/><circle cx="400" cy="600" r="10.921" fill="hsla(0, 0%, 14%, 1.00)" stroke="none"/><circle cx="500" cy="600" r="10.921" fill="hsla(0, 0%, 14%, 1.00)" stroke="none"/><circle cx="600" cy="600" r="10.921" fill="hsla(0, 0%, 14%, 1.00)" stroke="none"/><circle cx="700" cy="600" r="10.921" fill="hsla(0, 0%, 14%, 1.00)" stroke="none"/><circle cx="800" cy="600" r="10.921" fill="hsla(0, 0%, 14%, 1.00)" stroke="none"/><circle cx="0" cy="700" r="10.921" fill="hsla(0, 0%, 14%, 1.00)" stroke="none"/><circle cx="100" cy="700" r="10.921" fill="hsla(0, 0%, 14%, 1.00)" stroke="none"/><circle cx="200" cy="700" r="10.921" fill="hsla(0, 0%, 14%, 1.00)" stroke="none"/><circle cx="300" cy="700" r="10.921" fill="hsla(0, 0%, 14%, 1.00)" stroke="none"/><circle cx="400" cy="700" r="10.921" fill="hsla(0, 0%, 14%, 1.00)" stroke="none"/><circle cx="500" cy="700" r="10.921" fill="hsla(0, 0%, 14%, 1.00)" stroke="none"/><circle cx="600" cy="700" r="10.921" fill="hsla(0, 0%, 14%, 1.00)" stroke="none"/><circle cx="700" cy="700" r="10.921" fill="hsla(0, 0%, 14%, 1.00)" stroke="none"/><circle cx="800" cy="700" r="10.921" fill="hsla(0, 0%, 14%, 1.00)" stroke="none"/><circle cx="0" cy="800" r="10.921" fill="hsla(0, 0%, 14%, 1.00)" stroke="none"/><circle cx="100" cy="800" r="10.921" fill="hsla(0, 0%, 14%, 1.00)" stroke="none"/><circle cx="200" cy="800" r="10.921" fill="hsla(0, 0%, 14%, 1.00)" stroke="none"/><circle cx="300" cy="800" r="10.921" fill="hsla(0, 0%, 14%, 1.00)" stroke="none"/><circle cx="400" cy="800" r="10.921" fill="hsla(0, 0%, 14%, 1.00)" stroke="none"/><circle cx="500" cy="800" r="10.921" fill="hsla(0, 0%, 14%, 1.00)" stroke="none"/><circle cx="600" cy="800" r="10.921" fill="hsla(0, 0%, 14%, 1.00)" stroke="none"/><circle cx="700" cy="800" r="10.921" fill="hsla(0, 0%, 14%, 1.00)" stroke="none"/><circle cx="800" cy="800" r="10.921" fill="hsla(0, 0%, 14%, 1.00)" stroke="none"/></g></svg>